<?xml version="1.0" standalone="no"?><!DOCTYPE svg PUBLIC "-//W3C//DTD SVG 1.1//EN" "http://www.w3.org/Graphics/SVG/1.1/DTD/svg11.dtd"><svg t="1778157594810" class="icon" viewBox="0 0 1024 1024" version="1.1" xmlns="http://www.w3.org/2000/svg" p-id="14691" xmlns:xlink="http://www.w3.org/1999/xlink" width="200" height="200"><path d="M508.043636 965.585455a442.181818 442.181818 0 1 1 442.181819-442.181819 442.181818 442.181818 0 0 1-442.181819 442.181819z m0-814.545455a372.363636 372.363636 0 1 0 372.363637 372.363636 372.363636 372.363636 0 0 0-372.363637-372.363636z" p-id="14692"></path><path d="M597.643636 441.250909a82.152727 54.690909 90 1 0 109.381819 0 82.152727 54.690909 90 1 0-109.381819 0Z" p-id="14693"></path><path d="M303.709091 441.250909a82.152727 54.690909 90 1 0 109.381818 0 82.152727 54.690909 90 1 0-109.381818 0Z" p-id="14694"></path></svg>