<?xml version="1.0" standalone="no"?><!DOCTYPE svg PUBLIC "-//W3C//DTD SVG 1.1//EN" "http://www.w3.org/Graphics/SVG/1.1/DTD/svg11.dtd"><svg t="1778157498302" class="icon" viewBox="0 0 1024 1024" version="1.1" xmlns="http://www.w3.org/2000/svg" p-id="10667" xmlns:xlink="http://www.w3.org/1999/xlink" width="200" height="200"><path d="M36.571429 146.285714L36.571429 146.285714 109.714286 73.142857 109.714286 365.866926C109.714286 406.019343 142.509402 438.857143 182.704502 438.857143L475.428571 438.857143 402.285714 512 402.285714 219.275931C402.285714 179.123514 369.490598 146.285714 329.295498 146.285714L36.571429 146.285714ZM36.571429 73.142857L329.295498 73.142857C410.002567 73.142857 475.428571 138.844206 475.428571 219.275931L475.428571 512 182.704502 512C101.997435 512 36.571429 446.298653 36.571429 365.866926L36.571429 73.142857 36.571429 73.142857Z" fill="" p-id="10668"></path><path d="M585.142857 219.275931L585.142857 219.275931 585.142857 512 512 438.857143 804.72407 438.857143C844.876485 438.857143 877.714286 406.062026 877.714286 365.866926L877.714286 73.142857 950.857143 146.285714 658.133072 146.285714C617.980657 146.285714 585.142857 179.080831 585.142857 219.275931L585.142857 219.275931ZM512 219.275931C512 138.568863 577.701347 73.142857 658.133072 73.142857L950.857143 73.142857 950.857143 365.866926C950.857143 446.573996 885.155796 512 804.72407 512L512 512 512 219.275931 512 219.275931Z" fill="" p-id="10669"></path><path d="M109.714286 694.704501L109.714286 694.704501 109.714286 987.428571 36.571429 914.285714 329.295498 914.285714C369.447915 914.285714 402.285714 881.490597 402.285714 841.295499L402.285714 548.571429 475.428571 621.714286 182.704502 621.714286C142.552085 621.714286 109.714286 654.509403 109.714286 694.704501L109.714286 694.704501ZM36.571429 694.704501C36.571429 613.997433 102.272777 548.571429 182.704502 548.571429L475.428571 548.571429 475.428571 841.295499C475.428571 922.002567 409.727225 987.428571 329.295498 987.428571L36.571429 987.428571 36.571429 694.704501 36.571429 694.704501Z" fill="" p-id="10670"></path><path d="M512 621.714286L512 621.714286 585.142857 548.571429 585.142857 841.295499C585.142857 881.447914 617.937975 914.285714 658.133072 914.285714L950.857143 914.285714 877.714286 987.428571 877.714286 694.704501C877.714286 654.552086 844.919168 621.714286 804.72407 621.714286L512 621.714286ZM512 548.571429L804.72407 548.571429C885.431139 548.571429 950.857143 614.272775 950.857143 694.704501L950.857143 987.428571 658.133072 987.428571C577.426004 987.428571 512 921.727225 512 841.295499L512 548.571429 512 548.571429Z" fill="" p-id="10671"></path></svg>